<svg width="512" height="512" viewBox="0 0 512 512" fill="none" xmlns="http://www.w3.org/2000/svg">
<path d="M157.097 464.394C157.097 464.394 230.311 456.386 211.254 396.333C192.199 336.278 153.242 333.23 142.053 257.206C130.269 177.135 221.284 106.07 221.284 106.07C221.284 106.07 192.199 176.134 221.284 192.148C250.369 208.162 318.567 146.107 260.397 27C260.397 27 313.553 80.0468 327.594 141.102C341.634 202.158 269.695 249.356 260.397 306.251C255.859 334.025 301.768 364.803 331.856 299.495C348.298 263.806 325.588 203.158 325.588 203.158C325.588 203.158 364.732 226.402 370.719 306.251C376.235 379.817 300.264 484.911 157.097 464.394Z" fill="url(#paint0_linear_105_107)"/>
<defs>
<linearGradient id="paint0_linear_105_107" x1="256" y1="467" x2="256" y2="27" gradientUnits="userSpaceOnUse">
<stop stop-color="#FF5544"/>
<stop offset="1" stop-color="#FF7A00"/>
</linearGradient>
</defs>
</svg>
